HIERARCHY
ROOT Hips
{
	OFFSET 0.000000 0.000000 0.000000 
	CHANNELS 6 Xposition Yposition Zposition Zrotation Yrotation Xrotation
	JOINT LeftUpLeg
	{
		OFFSET 1.363060 -1.794630 0.839290 
		CHANNELS 3 Zrotation Yrotation Xrotation
		JOINT LeftLeg
		{
			OFFSET 2.448110 -6.726130 0.000000 
			CHANNELS 3 Zrotation Yrotation Xrotation
			JOINT LeftFoot
			{
				OFFSET 2.562200 -7.039590 0.000000 
				CHANNELS 3 Zrotation Yrotation Xrotation
				JOINT LeftToeBase
				{
					OFFSET 0.157640 -0.433110 2.322550 
					CHANNELS 3 Zrotation Yrotation Xrotation
					End Site
					{
						OFFSET 0.000000 0.000000 0.000000 
					}
				}
			}
		}
	}
	JOINT RightUpLeg
	{
		OFFSET -1.305520 -1.794630 0.839290 
		CHANNELS 3 Zrotation Yrotation Xrotation
		JOINT RightLeg
		{
			OFFSET -2.542530 -6.985550 0.000000 
			CHANNELS 3 Zrotation Yrotation Xrotation
			JOINT RightFoot
			{
				OFFSET -2.568260 -7.056230 0.000000 
				CHANNELS 3 Zrotation Yrotation Xrotation
				JOINT RightToeBase
				{
					OFFSET -0.164730 -0.452590 2.363150 
					CHANNELS 3 Zrotation Yrotation Xrotation
					End Site
					{
						OFFSET 0.000000 0.000000 0.000000 
					}
				}
			}
		}
	}
	JOINT Spine
	{
		OFFSET 0.028270 2.035590 -0.193380 
		CHANNELS 3 Zrotation Yrotation Xrotation
		JOINT Spine1
		{
			OFFSET 0.056720 2.048850 -0.042750 
			CHANNELS 3 Zrotation Yrotation Xrotation
			JOINT Neck1
			{
				OFFSET -0.054170 1.746240 0.172020 
				CHANNELS 3 Zrotation Yrotation Xrotation
				JOINT Head
				{
					OFFSET 0.104070 1.761360 -0.123970 
					CHANNELS 3 Zrotation Yrotation Xrotation
					End Site
					{
						OFFSET 0.000000 0.000000 0.000000 
					}
				}
			}
			JOINT LeftArm
			{
				OFFSET 3.362410 1.200890 -0.311210 
				CHANNELS 3 Zrotation Yrotation Xrotation
				JOINT LeftForeArm
				{
					OFFSET 4.983000 -0.000000 -0.000000 
					CHANNELS 3 Zrotation Yrotation Xrotation
					JOINT LeftHand
					{
						OFFSET 3.483560 -0.000000 -0.000000 
						CHANNELS 3 Zrotation Yrotation Xrotation
						JOINT LeftHandIndex1
						{
							OFFSET 0.715260 -0.000000 -0.000000 
							CHANNELS 3 Zrotation Yrotation Xrotation
							End Site
							{
								OFFSET 0.000000 0.000000 0.000000 
							}
						}
					}
				}
			}
			JOINT RightArm
			{
				OFFSET -3.136600 1.374050 -0.404650 
				CHANNELS 3 Zrotation Yrotation Xrotation
				JOINT RightForeArm
				{
					OFFSET -5.241900 -0.000000 -0.000000 
					CHANNELS 3 Zrotation Yrotation Xrotation
					JOINT RightHand
					{
						OFFSET -3.444170 -0.000000 -0.000000 
						CHANNELS 3 Zrotation Yrotation Xrotation
						JOINT RightHandIndex1
						{
							OFFSET -0.622530 -0.000000 -0.000000 
							CHANNELS 3 Zrotation Yrotation Xrotation
							End Site
							{
								OFFSET 0.000000 0.000000 0.000000 
							}
						}
					}
				}
			}
		}
	}
}
MOTION
Frames: 6
Frame Time: 0.041667
7.425712 2.377350 29.895038 -175.562283 -29.748683 124.355846 0.345904 -19.392965 -71.116101 21.618595 32.037847 94.623004 2.760559 -15.771399 39.937033 9.195400 -16.931800 -56.763300 11.006952 20.640139 -70.077755 -23.828788 -32.209492 97.029216 -1.495493 -0.329419 39.795331 -0.312000 3.590900 -9.928600 1.205402 6.288692 0.294716 -1.341013 3.116951 9.253955 6.187822 3.356275 22.924308 -1.219700 2.650300 16.567500 -66.179372 46.817383 11.575852 10.561425 -21.807903 -2.678252 -6.324492 0.594357 -22.861310 -7.125000 0.000000 0.000000 75.975664 -46.453934 38.250020 -16.030608 21.383111 -5.139522 2.903337 1.173496 -7.499265 7.125000 0.000000 0.000000 
7.411517 2.386111 29.846797 -175.272546 -29.693754 124.023617 0.635646 -19.618209 -71.086295 21.755759 32.055553 94.944864 2.748230 -15.836895 39.854328 9.318000 -17.008000 -57.183500 11.322037 20.564939 -69.899157 -23.977524 -32.148625 97.445369 -1.428601 -0.436392 39.548495 -0.338800 3.740300 -10.347100 1.260828 6.204573 0.330589 -1.110800 3.051182 9.512593 6.177864 3.537140 22.847869 -1.193100 2.719900 16.559500 -66.115301 46.950889 11.402445 10.531840 -21.840417 -2.658947 -6.317053 0.604707 -22.682291 -7.125000 0.000000 0.000000 75.757549 -46.726553 38.571923 -16.198360 21.581679 -5.205144 2.887947 1.181318 -7.622338 7.125000 0.000000 0.000000 
7.397433 2.394651 29.798112 -175.012663 -29.680349 123.704140 0.881112 -19.862540 -71.044455 21.883039 32.078420 95.234227 2.741522 -15.871188 39.842664 9.432200 -17.078000 -57.573300 11.584509 20.470948 -69.720511 -24.132976 -32.082804 97.874805 -1.365665 -0.527544 39.313195 -0.366400 3.888100 -10.762100 1.312142 6.124125 0.365941 -0.879435 2.984713 9.756324 6.164849 3.694702 22.769530 -1.173000 2.780100 16.539700 -66.070181 47.046903 11.054244 10.473183 -21.819904 -2.620433 -6.312748 0.628864 -22.361972 -7.125000 0.000000 0.000000 75.574008 -47.011095 38.865701 -16.371558 21.783027 -5.274598 2.872643 1.189628 -7.718145 7.125000 0.000000 0.000000 
7.383792 2.402524 29.749427 -174.825196 -29.749634 123.393399 1.004052 -20.133444 -70.948631 21.993319 32.108198 95.481780 2.737951 -15.856348 39.891307 9.540700 -17.143300 -57.941800 11.742475 20.362900 -69.520829 -24.304940 -32.010331 98.332283 -1.305887 -0.623120 39.092861 -0.390800 4.014000 -11.116100 1.352569 6.052546 0.404153 -0.642554 2.916949 9.987789 6.151145 3.834616 22.691526 -1.155800 2.833400 16.518000 -65.997601 47.166358 10.780349 10.439906 -21.841744 -2.598242 -6.302466 0.644631 -22.089758 -7.125000 0.000000 0.000000 75.439725 -47.295917 39.118217 -16.547507 21.983759 -5.346782 2.857613 1.197627 -7.787685 7.125000 0.000000 0.000000 
7.370706 2.409844 29.700853 -174.724095 -29.909594 123.096941 0.986130 -20.424226 -70.796693 22.086615 32.143099 95.691626 2.736013 -15.794409 39.984656 9.639000 -17.201800 -58.274900 11.781620 20.245948 -69.302178 -24.490191 -31.932466 98.816004 -1.251947 -0.686133 38.885675 -0.414300 4.131500 -11.447000 1.380711 5.993471 0.445510 -0.397536 2.848815 10.206778 6.130609 3.957041 22.617313 -1.149300 2.881700 16.498600 -65.886622 47.325203 10.650628 10.444387 -21.929144 -2.600539 -6.284431 0.644113 -21.921202 -7.125000 0.000000 0.000000 75.357550 -47.576468 39.318588 -16.724043 22.180298 -5.419962 2.842463 1.203441 -7.844817 7.125000 0.000000 0.000000 
7.358175 2.416498 29.652279 -174.673422 -30.119073 122.809443 0.885177 -20.718757 -70.613554 22.171978 32.178570 95.883413 2.735693 -15.706126 40.110227 9.724600 -17.252100 -58.563900 11.750140 20.127491 -69.077886 -24.680924 -31.851677 99.314968 -1.205174 -0.700496 38.694281 -0.440800 4.259900 -11.808900 1.396927 5.945262 0.486681 -0.178633 2.785455 10.409614 6.105811 4.060792 22.547054 -1.155200 2.927300 16.485000 -65.722748 47.501690 10.604617 10.470296 -22.053115 -2.617367 -6.262004 0.635765 -21.808760 -7.125000 0.000000 0.000000 75.340328 -47.856594 39.468930 -16.898707 22.372560 -5.493463 2.827464 1.207877 -7.896067 7.125000 0.000000 0.000000 
